<svg width="76" height="30" viewBox="0 0 76 30" fill="none" xmlns="http://www.w3.org/2000/svg">
<path fill-rule="evenodd" clip-rule="evenodd" d="M61.9216 2.93148C58.2455 3.64263 55.1322 5.96345 53.4021 9.28228C50.6975 14.4702 51.9993 20.9154 56.5002 24.6213C58.048 25.8959 60.2452 26.8925 62.0444 27.1364L62.9198 27.2553L62.8715 25.2768L62.8231 23.2983L62.0284 23.1825C59.6679 22.8382 57.7359 21.7383 56.5151 20.0432C55.3819 18.47 55.0514 17.3922 54.951 14.9445L54.8653 12.857L57.1422 12.9516C59.2786 13.0405 59.4914 13.0819 60.5928 13.6251C61.7056 14.1737 63.3246 15.5715 63.7155 16.3213C63.8728 16.6231 63.9856 16.5485 64.9252 15.5221C65.9975 14.3505 67.3532 13.4805 68.6598 13.1253C69.0615 13.016 70.2016 12.9139 71.193 12.8982L72.9955 12.8699L72.9635 14.69C72.946 15.6912 72.8489 16.8625 72.748 17.293C72.4447 18.5875 71.595 20.0329 70.5641 21.0085C69.1676 22.3301 68.2324 22.742 65.3337 23.313C64.9655 23.3853 64.9507 23.4589 64.9507 25.217C64.9507 26.6761 65.0019 27.0658 65.2042 27.1451C65.6732 27.3292 68.0156 26.6661 69.4249 25.9504C70.5301 25.3894 71.1479 24.9092 72.3749 23.6588C73.7035 22.3048 74.0394 21.8388 74.705 20.4243C76.4192 16.7828 76.4314 13.2971 74.7426 9.72571C73.5507 7.20501 71.6803 5.26204 69.291 4.06292C66.9137 2.8699 64.3078 2.46979 61.9216 2.93148ZM66.8191 7.35288C68.218 7.90642 69.5211 8.90705 70.3621 10.0736L71.1145 11.1174L70.6283 11.2273C69.3475 11.5166 68.85 11.4081 68.0633 10.6668C66.5158 9.20905 64.3584 8.63898 62.4897 9.19426C61.308 9.54531 60.8442 9.82191 59.8975 10.7392C59.1845 11.43 59.1841 11.43 58.1241 11.3168C57.5408 11.2545 57.027 11.1661 56.982 11.1202C56.8365 10.9714 57.8453 9.63125 58.6803 8.86391C59.5409 8.07308 60.6232 7.47622 61.887 7.09542C63.0214 6.75376 65.6514 6.89101 66.8191 7.35288ZM57.1213 15.6966C57.1213 17.4632 58.5816 19.6789 60.2403 20.4289C60.692 20.6331 61.4891 20.8451 62.0118 20.9003L62.962 21.0005L62.8626 20.147C62.5602 17.5479 60.4704 15.3885 57.9638 15.0851L57.1213 14.983V15.6966ZM69.1208 15.2749C67.9739 15.6456 67.4187 16.0184 66.5255 17.0173C65.6026 18.0492 65.1209 19.177 65.1209 20.3055V20.9947L66.0041 20.8878C68.4678 20.5896 70.5605 18.438 70.8546 15.9012L70.9554 15.0315L70.3784 15.0432C70.0611 15.0496 69.4952 15.1538 69.1208 15.2749Z" fill="#3D8B22"/>
<path d="M4.75488 11.0977L6.1875 12.1787L6.99609 11.0977L8.87695 12.5039L7.4707 14.3848L6.0293 13.3037L5.2207 14.3848L3.33984 12.9785L4.75488 11.0977ZM12.2695 12.7412V15.8086H13.0254V19.7021C12.5449 19.7021 12.1318 19.6055 11.7861 19.4121C11.4463 19.2129 11.2002 18.9375 11.0479 18.5859C10.6318 18.9902 10.1719 19.2773 9.66797 19.4473C9.16992 19.6172 8.58984 19.7021 7.92773 19.7021H2.8916C2.1709 19.7021 1.55273 19.4443 1.03711 18.9287C0.521484 18.4131 0.263672 17.7949 0.263672 17.0742V12.9961H2.7334V15.8086H9.4834V12.7412H12.2695ZM13.0254 15.8086H14.7832V19.7021H13.0254C12.9316 19.7021 12.8438 19.6611 12.7617 19.5791C12.6738 19.4912 12.6299 19.4004 12.6299 19.3066V16.2041C12.6299 16.0869 12.668 15.9932 12.7441 15.9229C12.8145 15.8467 12.9082 15.8086 13.0254 15.8086ZM14.7832 15.8086H16.541V19.7021H14.7832C14.6895 19.7021 14.6016 19.6611 14.5195 19.5791C14.4316 19.4912 14.3877 19.4004 14.3877 19.3066V16.2041C14.3877 16.0869 14.4258 15.9932 14.502 15.9229C14.5723 15.8467 14.666 15.8086 14.7832 15.8086ZM16.541 15.8086H18.2988V19.7021H16.541C16.4473 19.7021 16.3594 19.6611 16.2773 19.5791C16.1895 19.4912 16.1455 19.4004 16.1455 19.3066V16.2041C16.1455 16.0869 16.1836 15.9932 16.2598 15.9229C16.3301 15.8467 16.4238 15.8086 16.541 15.8086ZM23.6953 8.75098L25.1279 9.83203L25.9365 8.75098L27.8174 10.1572L26.4111 12.0381L24.9697 10.957L24.1611 12.0381L22.2803 10.6318L23.6953 8.75098ZM23.3613 7.95117L24.627 6.26367L26.3145 7.5293L25.0488 9.2168L23.3613 7.95117ZM18.2988 15.8086H19.7051V12.7412H22.4912V15.8086H23.7832V12.7412H26.2529V15.8086H27.5537V12.3457H30.3398V17.0742C30.3398 17.7949 30.082 18.4131 29.5664 18.9287C29.0508 19.4443 28.4326 19.7021 27.7119 19.7021H26.6748C26.2588 19.7021 25.9014 19.5557 25.6025 19.2627C25.3096 18.9639 25.1631 18.6064 25.1631 18.1904C25.1631 18.6064 25.0137 18.9639 24.7148 19.2627C24.4219 19.5557 24.0674 19.7021 23.6514 19.7021H22.5967C22.1807 19.7021 21.8232 19.5557 21.5244 19.2627C21.2314 18.9639 21.085 18.6064 21.085 18.1904C21.085 18.6064 20.9355 18.9639 20.6367 19.2627C20.3379 19.5557 19.9805 19.7021 19.5645 19.7021H18.2988C18.2051 19.7021 18.1172 19.6611 18.0352 19.5791C17.9473 19.4912 17.9033 19.4004 17.9033 19.3066V16.2041C17.9033 16.0869 17.9414 15.9932 18.0176 15.9229C18.0879 15.8467 18.1816 15.8086 18.2988 15.8086ZM31.2188 8.53125H34.0049V15.8086H34.6641V19.7021H33.8467C33.126 19.7021 32.5078 19.4443 31.9922 18.9287C31.4766 18.4072 31.2188 17.7861 31.2188 17.0654V8.53125ZM34.6641 15.8086H36.4219V19.7021H34.6641C34.5703 19.7021 34.4824 19.6611 34.4004 19.5791C34.3125 19.4912 34.2686 19.4004 34.2686 19.3066V16.2041C34.2686 16.0869 34.3066 15.9932 34.3828 15.9229C34.4531 15.8467 34.5469 15.8086 34.6641 15.8086ZM36.4219 15.8086H38.1797V19.7021H36.4219C36.3281 19.7021 36.2402 19.6611 36.1582 19.5791C36.0703 19.4912 36.0264 19.4004 36.0264 19.3066V16.2041C36.0264 16.0869 36.0645 15.9932 36.1406 15.9229C36.2109 15.8467 36.3047 15.8086 36.4219 15.8086ZM38.1797 15.8086H39.9375V19.7021H38.1797C38.0859 19.7021 37.998 19.6611 37.916 19.5791C37.8281 19.4912 37.7842 19.4004 37.7842 19.3066V16.2041C37.7842 16.0869 37.8223 15.9932 37.8984 15.9229C37.9688 15.8467 38.0625 15.8086 38.1797 15.8086ZM39.9375 15.8086H42.6182V14.1826L40.2012 12.0908V10.0518C40.2012 9.77637 40.2803 9.53027 40.4385 9.31348C40.5967 9.09668 40.8076 8.94727 41.0713 8.86523L45.8086 7.37109V10.2803L43.2861 11.0801L45.4043 12.8203V17.0742C45.4043 17.7949 45.1465 18.4131 44.6309 18.9287C44.1152 19.4443 43.4971 19.7021 42.7764 19.7021H39.9375C39.8438 19.7021 39.7559 19.6611 39.6738 19.5791C39.5859 19.4912 39.542 19.4004 39.542 19.3066V16.2041C39.542 16.0869 39.5801 15.9932 39.6562 15.9229C39.7266 15.8467 39.8203 15.8086 39.9375 15.8086Z" fill="#3D8B22"/>
</svg>
